<?xml version="1.0" standalone="no"?><!DOCTYPE svg PUBLIC "-//W3C//DTD SVG 1.1//EN" "http://www.w3.org/Graphics/SVG/1.1/DTD/svg11.dtd"><svg t="1652751127950" class="icon" viewBox="0 0 1024 1024" version="1.1" xmlns="http://www.w3.org/2000/svg" p-id="18688" xmlns:xlink="http://www.w3.org/1999/xlink" width="64" height="64"><defs><style type="text/css">@font-face { font-family: feedback-iconfont; src: url("//at.alicdn.com/t/font_1031158_u69w8yhxdu.woff2?t=1630033759944") format("woff2"), url("//at.alicdn.com/t/font_1031158_u69w8yhxdu.woff?t=1630033759944") format("woff"), url("//at.alicdn.com/t/font_1031158_u69w8yhxdu.ttf?t=1630033759944") format("truetype"); }
</style></defs><path d="M979.046021 278.645734c0-25.591563-9.596836-35.188399-35.188399-35.188399h-220.727229c-25.591563 0-35.188399 9.596836-35.188399 35.188399v153.549377c0 25.591563 9.596836 35.188399 35.188399 35.188398h220.727229c22.392617 0 35.188399-9.596836 35.188399-35.188398V278.645734zM300.869607 377.81304H83.341323c-25.591563 0-38.387344 9.596836-35.188398 35.188399v150.350431c0 25.591563 9.596836 38.387344 35.188398 38.387344h220.727229c25.591563 0 35.188399-12.795781 35.188399-35.188399V416.200384c-3.198945-28.790508-12.795781-38.387344-38.387344-38.387344zM636.758869 579.346597h-227.12512c-22.392617 0-31.989453 9.596836-31.989454 31.989453v159.947268c0 22.392617 9.596836 31.989453 31.989454 31.989453h227.12512c22.392617 0 31.989453-9.596836 31.989453-28.790508v-159.947268c0-25.591563-9.596836-38.387344-31.989453-35.188398zM473.612656 550.556089c15.994727 15.994727 51.183126 3.198945 79.973634 6.39789 22.392617 3.198945 25.591563-3.198945 25.591562-25.591563V77.112177c0-83.172579 6.397891-73.575743-76.774688-73.575743-25.591563 0-35.188399 9.596836-35.188399 35.188399v438.255513c3.198945 22.392617-9.596836 57.581016 6.397891 73.575743zM889.475551 752.089645V512.168744c0-19.193672-6.397891-25.591563-22.392617-22.392617-19.193672 3.198945-41.58629 3.198945-60.779962 0-22.392617-3.198945-25.591563 6.397891-25.591563 25.591563v435.056567c0 76.774688-6.397891 70.376798 70.376798 73.575743 28.790508 0 38.387344-9.596836 38.387344-38.387344v-233.523011zM220.895973 620.932886c-19.193672 3.198945-38.387344 3.198945-57.581016 0-25.591563-3.198945-28.790508 6.397891-28.790508 28.790508v297.501918c0 83.172579-12.795781 73.575743 76.774688 76.774688 25.591563 0 35.188399-9.596836 31.989454-35.188399v-169.544103-169.544104c3.198945-22.392617 0-31.989453-22.392618-28.790508zM156.917066 355.420422c22.392617-3.198945 44.785235 0 67.177853 0 15.994727 0 22.392617-3.198945 22.392617-22.392617V182.677374 77.112177C246.487536-9.259347 256.084372 0.337489 169.712848 0.337489c-25.591563 0-35.188399 9.596836-35.188399 35.188399v297.501917c0 15.994727 3.198945 22.392617 22.392617 22.392617zM783.910355 217.865772c15.994727 12.795781 54.382071 3.198945 83.172579 6.397891 19.193672 0 22.392617-6.397891 22.392617-25.591563V73.913232c0-83.172579 9.596836-73.575743-76.774688-73.575743h-6.397891c-19.193672 0-25.591563 9.596836-25.591563 28.790508V137.892139c0 28.790508-12.795781 67.177852 3.198946 79.973633zM579.177852 918.434804v-79.973634c0-12.795781-3.198945-19.193672-15.994726-15.994727h-76.774689c-15.994727 0-19.193672 6.397891-19.193672 19.193672V992.010547c0 19.193672 6.397891 31.989453 25.591563 28.790508 28.790508-6.397891 63.978907 19.193672 83.172579-19.193672 3.198945-6.397891 0-12.795781 0-19.193673 3.198945-19.193672 3.198945-41.58629 3.198945-63.978906z" fill="#387dff" p-id="18689"></path></svg>