<?xml version="1.0" standalone="no"?><!DOCTYPE svg PUBLIC "-//W3C//DTD SVG 1.1//EN" "http://www.w3.org/Graphics/SVG/1.1/DTD/svg11.dtd"><svg t="1652749218846" class="icon" viewBox="0 0 1447 1024" version="1.1" xmlns="http://www.w3.org/2000/svg" p-id="2629" xmlns:xlink="http://www.w3.org/1999/xlink" width="90.4375" height="64"><defs><style type="text/css">@font-face { font-family: feedback-iconfont; src: url("//at.alicdn.com/t/font_1031158_u69w8yhxdu.woff2?t=1630033759944") format("woff2"), url("//at.alicdn.com/t/font_1031158_u69w8yhxdu.woff?t=1630033759944") format("woff"), url("//at.alicdn.com/t/font_1031158_u69w8yhxdu.ttf?t=1630033759944") format("truetype"); }
</style></defs><path d="M1261.299748 299.891856H845.337364V95.607725c0-52.446683-42.473216-94.919899-94.9199-94.9199H325.51335c-52.446683 0-94.919899 42.473216-94.919899 94.9199V1023.140218h544.585726v-4.470865c0-1.375651 0-2.751301 0.171957-4.126952 0.171956-4.814777 0.343913-9.629555 0.859781-14.444332 0.171956-2.235432 0.343913-4.298908 0.687826-6.362385 0.171956-1.031738 0.171956-2.235432 0.343912-3.26717 0.171956-0.859782 0.171956-1.89152 0.343913-2.751302 0-0.515869 0.171956-1.203694 0.171956-1.719563 0-0.343913 0-0.687825 0.171957-1.031738 0-0.343913 0-0.515869 0.171956-0.859782 0.171956-1.547607 0.515869-2.923258 0.687825-4.298908 0.171956-1.031738 0.343913-1.89152 0.515869-2.923258 0.687825-3.954996 1.375651-7.909992 2.235433-11.693031 0.171956-1.203694 0.515869-2.407389 0.687825-3.439127 0.343913-1.203694 0.515869-2.407389 0.859782-3.439127 0.343913-1.547607 0.687825-2.923258 1.031738-4.298908 0.515869-1.89152 1.031738-3.954996 1.547607-5.846516 0.343913-1.375651 0.859782-2.751301 1.203694-4.126952 0.515869-2.063476 1.203694-3.954996 1.89152-6.018472 0.515869-1.375651 0.859782-2.751301 1.375651-4.126952 0.171956-0.687825 0.343913-1.203694 0.687825-1.891519 0.515869-1.375651 0.859782-2.579345 1.375651-3.954996 0.515869-1.203694 0.859782-2.579345 1.37565-3.78304 0.171956-0.343913 0.343913-0.859782 0.515869-1.203694 0.687825-1.89152 1.547607-3.783039 2.235433-5.674559 0-0.171956 0-0.171956 0.171956-0.343913l2.063476-4.642821c0.171956-0.515869 0.515869-1.031738 0.687826-1.547607 0.687825-1.375651 1.203694-2.751301 1.891519-4.298909 0.515869-1.203694 1.203694-2.579345 1.89152-3.783039 0.515869-1.031738 1.031738-2.063476 1.547607-2.923258 0-0.171956 0.171956-0.343913 0.343913-0.515869 0.687825-1.547607 1.547607-3.095214 2.235432-4.642821 0.687825-1.375651 1.375651-2.579345 2.063476-3.954996 0.515869-1.031738 1.203694-2.235432 1.89152-3.26717 0.859782-1.547607 1.719563-2.923258 2.579345-4.470865 0.859782-1.375651 1.547607-2.751301 2.407389-3.954996 0.343913-0.515869 0.515869-0.859782 0.859782-1.203694 0.859782-1.547607 1.719563-2.923258 2.751301-4.298909 1.203694-1.89152 2.579345-3.954996 3.954996-5.846515 1.031738-1.547607 2.063476-3.095214 3.26717-4.642822 1.031738-1.375651 1.89152-2.751301 2.923258-4.126952l1.547607-2.063476c0.859782-1.031738 1.547607-2.063476 2.407389-3.095214 0.343913-0.515869 0.687825-0.859782 1.031738-1.375651 1.031738-1.375651 2.063476-2.751301 3.26717-3.954995 0.171956-0.171956 0.343913-0.515869 0.515869-0.687826 0.171956-0.171956 0.343913-0.515869 0.515869-0.687825 0.515869-0.687825 1.031738-1.203694 1.547607-1.719563 0.343913-0.515869 0.859782-1.031738 1.203695-1.547607 0.171956-0.171956 0.343913-0.343913 0.515869-0.687826 0 0 0-0.171956 0.171956-0.171956 1.203694-1.375651 2.235432-2.579345 3.439127-3.954996 44.020823-49.351469 105.409236-82.882955 174.707641-90.964903-67.750798-14.788245-118.649874-75.14492-118.649875-147.366583 0-83.398825 67.578841-150.977666 150.977666-150.977666s150.977666 67.578841 150.977666 150.977666c0 72.221662-50.72712 132.578338-118.649874 147.366583 2.235432 0.343913 4.298908 0.515869 6.534341 0.859781 1.031738 0.171956 2.063476 0.343913 3.26717 0.515869l3.095215 0.515869c0.343913 0 0.687825 0.171956 1.031738 0.171957 1.89152 0.343913 3.611083 0.687825 5.502602 1.031738 2.063476 0.343913 4.298908 0.859782 6.362385 1.203694 3.095214 0.687825 6.190428 1.375651 9.285642 2.235432l6.190429 1.547608c1.031738 0.343913 2.063476 0.515869 3.095214 0.859781 2.751301 0.859782 5.674559 1.719563 8.42586 2.579345a273.410579 273.410579 0 0 1 105.925105 62.764064c1.031738 1.031738 2.063476 1.89152 3.095214 2.923258 0.687825 0.687825 1.547607 1.375651 2.235433 2.235432 1.375651 1.375651 2.923258 2.923258 4.298908 4.470865 0.687825 0.687825 1.375651 1.547607 2.063476 2.235433 1.375651 1.547607 2.751301 3.095214 4.126952 4.470864 0.687825 0.859782 1.375651 1.547607 2.063476 2.235433 0.343913 0.515869 0.687825 0.859782 1.031739 1.37565 1.203694 1.375651 2.407389 2.923258 3.611083 4.298909 1.031738 1.375651 2.235432 2.579345 3.26717 3.954996 0.687825 0.859782 1.203694 1.547607 1.89152 2.407388 0.687825 0.859782 1.203694 1.547607 1.89152 2.407389 0.687825 0.859782 1.375651 1.719563 1.891519 2.579345 0.687825 0.859782 1.203694 1.719563 1.89152 2.407389 1.203694 1.719563 2.407389 3.26717 3.611083 4.986734 0.687825 0.859782 1.203694 1.719563 1.719564 2.579345 0.687825 0.859782 1.203694 1.89152 1.891519 2.751301 0.515869 0.859782 1.031738 1.547607 1.547607 2.407389 0.687825 1.031738 1.375651 2.063476 2.063476 3.267171 0.515869 0.687825 0.859782 1.375651 1.203695 2.063476l1.547607 2.579345c0.515869 0.859782 1.031738 1.719563 1.547607 2.751301 0.515869 0.859782 1.031738 1.719563 1.547607 2.751302 0.515869 0.859782 1.031738 1.719563 1.547607 2.751301 0.515869 0.859782 1.031738 1.89152 1.547607 2.751301 0.515869 0.859782 1.031738 1.719563 1.375651 2.751302 1.203694 2.235432 2.235432 4.470865 3.439127 6.706297 0.515869 1.031738 1.031738 2.063476 1.547607 3.267171 0.687825 1.375651 1.375651 2.923258 2.063476 4.470864 0.343913 0.859782 0.859782 1.719563 1.203694 2.579345 0.515869 0.859782 0.859782 1.89152 1.203694 2.923258 0.687825 1.375651 1.203694 2.923258 1.89152 4.298909 0.515869 1.375651 1.203694 2.923258 1.719563 4.298908 0.859782 1.89152 1.547607 3.954996 2.235433 5.846516 1.031738 2.923258 2.063476 6.018472 3.095214 8.941729 0.171956 0.687825 0.515869 1.547607 0.687825 2.235433 2.407389 7.566079 4.470865 15.304114 6.190429 23.214106 0.343913 1.375651 0.515869 2.751301 0.859781 4.126952l0.515869 2.579345 0.515869 2.579345c0.687825 3.611083 1.375651 7.222166 1.89152 11.005206 0.171956 0.859782 0.171956 1.547607 0.343913 2.407388 0 0.515869 0.171956 1.203694 0.171956 1.719564 0.343913 3.26717 0.859782 6.534341 1.031738 9.801511 0.171956 0.859782 0.171956 1.547607 0.171956 2.407389 0 0.687825 0.171956 1.203694 0.171957 1.89152 0 0.687825 0.171956 1.375651 0.171956 2.235432v0.515869c0 1.031738 0.171956 2.063476 0.171956 3.26717 0 1.547607 0.171956 3.095214 0.171957 4.470865v1.89152c0 1.89152 0.171956 3.783039 0.171956 5.674559v3.954996H1358.45508V397.219144c0.171956-53.822334-43.504954-97.327288-97.155332-97.327288zM732.877918 752.824853H343.052897v-93.372292h389.825021v93.372292z m0-203.252393H343.052897v-93.372292h389.825021v93.372292z m0-203.080436H343.052897v-93.372293h389.825021v93.372293z" p-id="2630" fill="#387dff"></path><path d="M343.052897 346.492024h389.825021v0.171956H343.052897zM343.052897 549.57246h389.825021v0.171956H343.052897z" p-id="2631" fill="#387dff"></path><path d="M343.052897 346.492024h389.825021v0.171956H343.052897zM343.052897 549.57246h389.825021v0.171956H343.052897z" p-id="2632" fill="#387dff"></path><path d="M837.943241 847.40084c-31.46801 38.346264-52.790596 85.462301-60.012762 136.877246v-0.343913c0.171956-1.547607 0.515869-2.923258 0.687825-4.298909 0.171956-1.031738 0.343913-1.89152 0.515869-2.923257 0.687825-3.954996 1.375651-7.909992 2.235432-11.693031 0.171956-1.203694 0.515869-2.407389 0.687826-3.439127 0.343913-1.203694 0.515869-2.407389 0.859781-3.439127 0.343913-1.547607 0.687825-2.923258 1.031738-4.298908 0.515869-1.89152 1.031738-3.954996 1.547608-5.846516 0.343913-1.375651 0.859782-2.751301 1.203694-4.126952 0.515869-2.063476 1.203694-3.954996 1.89152-6.018472 0.515869-1.375651 0.859782-2.751301 1.37565-4.126952 0.171956-0.687825 0.343913-1.203694 0.687826-1.89152 0.515869-1.375651 0.859782-2.579345 1.37565-3.954996 0.515869-1.203694 0.859782-2.579345 1.375651-3.783039 0.171956-0.343913 0.343913-0.859782 0.515869-1.203694 0.687825-1.89152 1.547607-3.783039 2.235433-5.67456 0-0.171956 0-0.171956 0.171956-0.343912l2.063476-4.642821c0.171956-0.515869 0.515869-1.031738 0.687825-1.547608 0.687825-1.375651 1.203694-2.751301 1.89152-4.298908 0.515869-1.203694 1.203694-2.579345 1.89152-3.783039 0.515869-1.031738 1.031738-2.063476 1.547607-2.923258 0-0.171956 0.171956-0.343913 0.343913-0.515869 0.687825-1.547607 1.547607-3.095214 2.235432-4.642821 0.687825-1.375651 1.375651-2.579345 2.063476-3.954996 0.515869-1.031738 1.203694-2.235432 1.89152-3.267171 0.859782-1.547607 1.719563-2.923258 2.579345-4.470864 0.859782-1.375651 1.547607-2.751301 2.407389-3.954996 0.343913-0.515869 0.515869-0.859782 0.859781-1.203695 0.859782-1.547607 1.719563-2.923258 2.751302-4.298908 1.203694-1.89152 2.579345-3.954996 3.954995-5.846516 1.031738-1.547607 2.063476-3.095214 3.267171-4.642821 1.031738-1.375651 1.89152-2.751301 2.923258-4.126952l1.547607-2.063476c0.859782-1.031738 1.547607-2.063476 2.407388-3.095214 0.343913-0.515869 0.687825-0.859782 1.031739-1.375651 1.031738-1.375651 2.063476-2.751301 3.26717-3.954996-0.343913-0.343913-0.171956-0.515869 0-0.859781z" p-id="2633" fill="#387dff"></path><path d="M837.943241 847.40084c-31.46801 38.346264-52.790596 85.462301-60.012762 136.877246v-0.343913c0.171956-1.547607 0.515869-2.923258 0.687825-4.298909 0.171956-1.031738 0.343913-1.89152 0.515869-2.923257 0.687825-3.954996 1.375651-7.909992 2.235432-11.693031 0.171956-1.203694 0.515869-2.407389 0.687826-3.439127 0.343913-1.203694 0.515869-2.407389 0.859781-3.439127 0.343913-1.547607 0.687825-2.923258 1.031738-4.298908 0.515869-1.89152 1.031738-3.954996 1.547608-5.846516 0.343913-1.375651 0.859782-2.751301 1.203694-4.126952 0.515869-2.063476 1.203694-3.954996 1.89152-6.018472 0.515869-1.375651 0.859782-2.751301 1.37565-4.126952 0.171956-0.687825 0.343913-1.203694 0.687826-1.89152 0.515869-1.375651 0.859782-2.579345 1.37565-3.954996 0.515869-1.203694 0.859782-2.579345 1.375651-3.783039 0.171956-0.343913 0.343913-0.859782 0.515869-1.203694 0.687825-1.89152 1.547607-3.783039 2.235433-5.67456 0-0.171956 0-0.171956 0.171956-0.343912l2.063476-4.642821c0.171956-0.515869 0.515869-1.031738 0.687825-1.547608 0.687825-1.375651 1.203694-2.751301 1.89152-4.298908 0.515869-1.203694 1.203694-2.579345 1.89152-3.783039 0.515869-1.031738 1.031738-2.063476 1.547607-2.923258 0-0.171956 0.171956-0.343913 0.343913-0.515869 0.687825-1.547607 1.547607-3.095214 2.235432-4.642821 0.687825-1.375651 1.375651-2.579345 2.063476-3.954996 0.515869-1.031738 1.203694-2.235432 1.89152-3.267171 0.859782-1.547607 1.719563-2.923258 2.579345-4.470864 0.859782-1.375651 1.547607-2.751301 2.407389-3.954996 0.343913-0.515869 0.515869-0.859782 0.859781-1.203695 0.859782-1.547607 1.719563-2.923258 2.751302-4.298908 1.203694-1.89152 2.579345-3.954996 3.954995-5.846516 1.031738-1.547607 2.063476-3.095214 3.267171-4.642821 1.031738-1.375651 1.89152-2.751301 2.923258-4.126952l1.547607-2.063476c0.859782-1.031738 1.547607-2.063476 2.407388-3.095214 0.343913-0.515869 0.687825-0.859782 1.031739-1.375651 1.031738-1.375651 2.063476-2.751301 3.26717-3.954996-0.343913-0.343913-0.171956-0.515869 0-0.859781z" p-id="2634" fill="#387dff"></path></svg>