<?xml version="1.0" standalone="no"?><!DOCTYPE svg PUBLIC "-//W3C//DTD SVG 1.1//EN" "http://www.w3.org/Graphics/SVG/1.1/DTD/svg11.dtd"><svg t="1652750946074" class="icon" viewBox="0 0 1024 1024" version="1.1" xmlns="http://www.w3.org/2000/svg" p-id="13656" xmlns:xlink="http://www.w3.org/1999/xlink" width="64" height="64"><defs><style type="text/css">@font-face { font-family: feedback-iconfont; src: url("//at.alicdn.com/t/font_1031158_u69w8yhxdu.woff2?t=1630033759944") format("woff2"), url("//at.alicdn.com/t/font_1031158_u69w8yhxdu.woff?t=1630033759944") format("woff"), url("//at.alicdn.com/t/font_1031158_u69w8yhxdu.ttf?t=1630033759944") format("truetype"); }
</style></defs><path d="M970.605714 887.771429c7.131429 0 21.394286 6.582857 19.748572 14.811428v75.702857c-1.097143 6.582857-13.714286 13.714286-19.748572 13.714286H51.748571c-13.165714 0-19.748571-7.131429-19.748571-13.714286v-76.251428c0-6.582857 6.582857-13.714286 19.748571-13.714286h52.662858V237.714286c0-17.554286 10.422857-34.011429 26.331428-41.691429l300.617143-158.537143a67.474286 67.474286 0 0 1 52.662857 0c19.748571 7.131429 19.748571 20.297143 19.748572 109.165715v809.691428h52.662857V219.611429c-0.548571-86.674286 9.874286-102.582857 26.331428-109.165715 14.811429-6.582857 31.268571-6.582857 46.08 0l262.765715 137.142857c15.908571 7.68 26.331429 23.04 26.331428 40.594286v599.588572h52.662857z m-617.142857-96.548572l1.645714-64.182857a13.568 13.568 0 0 0-13.714285-13.714286h-75.702857a13.568 13.568 0 0 0-13.714286 13.714286v64.182857c0 7.68 6.034286 13.714286 13.714286 13.714286H339.748571c7.68 0 13.714286-6.034286 13.714286-13.714286z m0-193.645714l1.645714-65.28a13.568 13.568 0 0 0-13.714285-13.714286h-75.702857a13.568 13.568 0 0 0-13.714286 13.714286v65.28c0 7.68 6.034286 13.714286 13.714286 13.714286H339.748571c7.68 0 13.714286-6.034286 13.714286-13.714286z m0-193.097143l1.645714-65.828571a13.568 13.568 0 0 0-13.714285-13.714286h-75.702857a13.568 13.568 0 0 0-13.714286 13.714286v65.828571c0 7.68 6.034286 13.714286 13.714286 13.714286H339.748571c7.68 0 13.714286-6.034286 13.714286-13.714286zM786.285714 790.674286v-64.731429a13.568 13.568 0 0 0-13.714285-13.714286h-75.702858a13.568 13.568 0 0 0-13.714285 13.714286v64.731429c0 7.68 6.034286 13.714286 13.714285 13.714285h75.702858c7.68 0 13.714286-6.034286 13.714285-13.714285z m0-193.645715v-64.731428a13.568 13.568 0 0 0-13.714285-13.714286h-75.702858a13.568 13.568 0 0 0-13.714285 13.714286v64.731428c0 7.68 6.034286 13.714286 13.714285 13.714286h75.702858c7.68 0 13.714286-6.034286 13.714285-13.714286z m0-193.097142V338.651429a13.568 13.568 0 0 0-13.714285-13.714286h-75.702858a13.568 13.568 0 0 0-13.714285 13.714286v65.28c0 7.68 6.034286 13.714286 13.714285 13.714285h75.702858c7.68 0 13.714286-6.034286 13.714285-13.714285z" p-id="13657"></path></svg>