<?xml version="1.0" standalone="no"?><!DOCTYPE svg PUBLIC "-//W3C//DTD SVG 1.1//EN" "http://www.w3.org/Graphics/SVG/1.1/DTD/svg11.dtd"><svg t="1652750787504" class="icon" viewBox="0 0 1159 1024" version="1.1" xmlns="http://www.w3.org/2000/svg" p-id="9638" xmlns:xlink="http://www.w3.org/1999/xlink" width="72.4375" height="64"><defs><style type="text/css">@font-face { font-family: feedback-iconfont; src: url("//at.alicdn.com/t/font_1031158_u69w8yhxdu.woff2?t=1630033759944") format("woff2"), url("//at.alicdn.com/t/font_1031158_u69w8yhxdu.woff?t=1630033759944") format("woff"), url("//at.alicdn.com/t/font_1031158_u69w8yhxdu.ttf?t=1630033759944") format("truetype"); }
</style></defs><path d="M982.717542 542.72c-92.16-75.776-183.296-151.552-275.456-226.304L580.285542 210.944c-4.096 3.072-7.168 5.12-10.24 7.168-132.096 109.568-264.192 218.112-395.264 327.68-5.12 5.12-8.192 12.288-8.192 19.456 0 110.592-1.024 221.184 0 330.752 0 33.792 18.432 52.224 53.248 52.224h254.976c4.096 0 9.216-1.024 15.36-1.024V671.744h183.296v275.456h268.288c36.864 0 54.272-17.408 54.272-54.272V567.296c-1.024-9.216-6.144-19.456-13.312-24.576z m160.768-74.752c20.48 16.384 21.504 26.624 5.12 46.08-11.264 13.312-21.504 25.6-32.768 38.912-15.36 18.432-26.624 19.456-45.056 4.096-163.84-136.192-327.68-273.408-491.52-409.6C416.445542 283.648 252.605542 419.84 89.789542 557.056 71.357542 572.416 61.117542 571.392 44.733542 552.96l-31.744-37.888c-18.432-21.504-17.408-30.72 4.096-49.152 74.752-62.464 148.48-123.904 223.232-186.368L515.773542 51.2C559.805542 14.336 600.765542 14.336 644.797542 51.2L795.325542 177.152c4.096 3.072 8.192 6.144 15.36 12.288V94.208 51.2c0-16.384 8.192-23.552 24.576-24.576h135.168c17.408 0 24.576 9.216 24.576 29.696 0 87.04 1.024 174.08-1.024 260.096 0 19.456 5.12 31.744 20.48 43.008 44.032 35.84 86.016 72.704 129.024 108.544z" p-id="9639" fill="#387dff"></path></svg>