<?xml version="1.0" standalone="no"?><!DOCTYPE svg PUBLIC "-//W3C//DTD SVG 1.1//EN" "http://www.w3.org/Graphics/SVG/1.1/DTD/svg11.dtd"><svg t="1652751015143" class="icon" viewBox="0 0 1024 1024" version="1.1" xmlns="http://www.w3.org/2000/svg" p-id="15798" xmlns:xlink="http://www.w3.org/1999/xlink" width="64" height="64"><defs><style type="text/css">@font-face { font-family: feedback-iconfont; src: url("//at.alicdn.com/t/font_1031158_u69w8yhxdu.woff2?t=1630033759944") format("woff2"), url("//at.alicdn.com/t/font_1031158_u69w8yhxdu.woff?t=1630033759944") format("woff"), url("//at.alicdn.com/t/font_1031158_u69w8yhxdu.ttf?t=1630033759944") format("truetype"); }
</style></defs><path d="M512.197105 991.816174V489.818904c0-13.2716 7.994465-25.204225 20.084617-29.969399l448.792727-177.492876c20.557196-8.11261 42.847182 7.324978 42.847182 29.969398V773.878393a32.056623 32.056623 0 0 1-17.958011 28.945477L557.249657 1020.801033c-20.872249 10.199835-45.01317-5.355898-45.01317-28.945477zM69.035947 178.34982L498.492308 2.314063a30.757031 30.757031 0 0 1 23.392671 0l425.833253 173.042755c26.81887 10.869322 26.267528 49.896489-0.945158 59.978179L472.894267 411.173846a31.072083 31.072083 0 0 1-23.550198-0.787632L68.012025 237.500985c-25.401133-11.538809-24.810409-48.636277 1.023922-59.151165z m345.219116 837.843565L16.22522 790.53681A32.371676 32.371676 0 0 1 0 762.49711V314.295107c0-23.117 23.077618-38.593969 43.871104-29.5362l398.029843 174.736164a32.21415 32.21415 0 0 1 19.100076 29.536201v499.004268c0 24.495356-25.83433 39.932944-46.74596 28.157845z m-314.501467-489.513302a32.332295 32.332295 0 0 0 15.437587 28.118463l179.54072 108.614456c20.793485 12.602112 47.179158-2.520422 47.533593-27.133923a32.174768 32.174768 0 0 0-15.437588-28.0397L147.287188 499.664304c-20.793485-12.720257-47.179158 2.284133-47.533592 27.015779z" p-id="15799"></path></svg>