<?xml version="1.0" standalone="no"?><!DOCTYPE svg PUBLIC "-//W3C//DTD SVG 1.1//EN" "http://www.w3.org/Graphics/SVG/1.1/DTD/svg11.dtd"><svg t="1652750919936" class="icon" viewBox="0 0 1024 1024" version="1.1" xmlns="http://www.w3.org/2000/svg" p-id="12790" xmlns:xlink="http://www.w3.org/1999/xlink" width="64" height="64"><defs><style type="text/css">@font-face { font-family: feedback-iconfont; src: url("//at.alicdn.com/t/font_1031158_u69w8yhxdu.woff2?t=1630033759944") format("woff2"), url("//at.alicdn.com/t/font_1031158_u69w8yhxdu.woff?t=1630033759944") format("woff"), url("//at.alicdn.com/t/font_1031158_u69w8yhxdu.ttf?t=1630033759944") format("truetype"); }
</style></defs><path d="M1007.488 141.504a99.392 99.392 0 0 0-12.48-65.92c-11.712-19.52-27.52-31.296-47.488-35.392L827.904 16.96c-19.456-4.032-37.184 1.024-53.504 15.232-16.32 14.272-26.112 33.6-29.44 57.984L643.136 878.912c-1.344 12.096-0.832 23.744 1.408 34.752a109.89 109.89 0 0 0 11.52 30.592 75.84 75.84 0 0 0 47.872 35.968l118.848 23.168c19.968 4.032 37.888-1.28 53.888-15.872 15.936-14.656 25.6-34.112 28.992-58.624l101.824-787.392z m-502.08 866.88c20.032 0 36.928-8.512 50.88-25.664 14.016-17.024 21.056-37.824 21.056-62.208V104.96c0-24.448-7.04-45.248-21.056-62.272-13.952-17.152-30.912-25.664-50.88-25.664H401.6c-19.968 0-36.928 8.512-50.816 25.664a94.848 94.848 0 0 0-21.056 62.272v815.552c0 24.384 5.312 45.184 15.936 62.208a51.776 51.776 0 0 0 46.912 25.664h112.832zM493.44 323.968c5.44 0 10.112 3.072 13.888 9.28 3.84 6.144 5.696 13.44 5.696 21.888a40.32 40.32 0 0 1-5.696 22.336c-3.776 5.824-8.448 8.704-13.888 8.704h-85.184c-5.44 0-10.112-2.88-13.952-8.704a40.448 40.448 0 0 1-5.632-22.336c0-8.448 1.856-15.744 5.696-21.888 3.84-6.208 8.512-9.28 13.952-9.28h85.12z m0 186.688c5.44 0 10.112 3.008 13.888 9.088 3.84 6.016 5.696 13.568 5.696 22.464 0 8.96-1.92 16.256-5.696 22.016-3.776 5.824-8.448 8.576-13.888 8.576h-85.184c-5.44 0-10.112-2.752-13.952-8.576a38.976 38.976 0 0 1-5.696-22.016c0-8.896 1.856-16.448 5.696-22.464 3.84-6.08 8.512-9.088 13.952-9.088h85.184zM192 1008.384c19.968 0 37.056-8.512 51.392-25.664a93.44 93.44 0 0 0 21.44-62.208V104.96c0-24.448-7.168-45.248-21.44-62.272C229.12 25.536 211.968 17.024 192 17.024H88.192c-19.968 0-37.056 8.512-51.392 25.664a93.76 93.76 0 0 0-21.44 62.272v815.552c0 24.384 7.104 45.184 21.44 62.208 14.336 17.216 31.424 25.664 51.392 25.664H192zM99.008 759.616c-6.336 0-11.456-2.944-15.424-8.896a38.528 38.528 0 0 1-6.016-22.4c0-8.448 1.984-15.68 6.016-21.888 4.032-6.08 9.152-9.216 15.424-9.216h82.368c6.336 0 11.264 3.136 15.04 9.216 3.712 6.208 5.568 13.44 5.568 21.888a41.088 41.088 0 0 1-5.568 22.4c-3.776 5.952-8.704 8.896-15.04 8.896H99.008z m82.944-435.648c6.144 0 11.008 3.072 14.656 9.088s5.44 13.312 5.44 22.016c0 9.344-1.856 16.896-5.44 22.592s-8.512 8.512-14.656 8.512h-83.52c-6.144 0-11.072-2.816-15.04-8.512a39.808 39.808 0 0 1-5.824-22.592c0-8.704 1.984-16 5.824-22.016 3.968-6.016 8.896-9.088 15.04-9.088h83.52z m0 186.688c6.144 0 11.008 2.88 14.656 8.768a41.408 41.408 0 0 1 5.44 22.336c0 9.088-1.856 16.512-5.44 22.336s-8.512 8.704-14.656 8.704h-83.52c-6.144 0-11.072-2.88-15.04-8.704a39.936 39.936 0 0 1-5.824-22.336c0-9.088 1.984-16.512 5.824-22.336 3.968-5.888 8.896-8.768 15.04-8.768h83.52z" p-id="12791"></path></svg>