<?xml version="1.0" standalone="no"?><!DOCTYPE svg PUBLIC "-//W3C//DTD SVG 1.1//EN" "http://www.w3.org/Graphics/SVG/1.1/DTD/svg11.dtd"><svg t="1652751465278" class="icon" viewBox="0 0 1068 1024" version="1.1" xmlns="http://www.w3.org/2000/svg" p-id="19852" xmlns:xlink="http://www.w3.org/1999/xlink" width="66.75" height="64"><defs><style type="text/css">@font-face { font-family: feedback-iconfont; src: url("//at.alicdn.com/t/font_1031158_u69w8yhxdu.woff2?t=1630033759944") format("woff2"), url("//at.alicdn.com/t/font_1031158_u69w8yhxdu.woff?t=1630033759944") format("woff"), url("//at.alicdn.com/t/font_1031158_u69w8yhxdu.ttf?t=1630033759944") format("truetype"); }
</style></defs><path d="M1048.02129 931.290296C1036.726873 925.787656 1026.340999 919.853262 1017.24711 913.216225L1011.904144 910.050087C978.112555 893.973894 940.186629 884.399299 899.860122 884.399299 899.46002 884.399299 899.076594 884.450087 898.676503 884.450087L1016.49693 585.800357C1042.978393 546.629984 1039.544228 493.313579 1005.994369 457.927339 1001.226538 452.924165 995.750197 448.657498 989.698725 445.355906L900.251881 396.204584 900.251881 206.778129C900.218539 169.351677 870.402926 139.078661 833.568936 139.078661L800.202454 139.078661 800.202454 71.345327C800.202454 33.927338 770.386841 3.645855 733.544513 3.611993L333.438499 3.611993C296.596171 3.645855 266.780556 33.927338 266.747218 71.345327L266.747218 139.078661 233.414078 139.078661C196.57175 139.078661 166.756142 169.351677 166.731133 206.778129L166.731133 396.213051 77.284296 445.355906C71.232821 448.657498 65.76482 452.924165 60.988652 457.927339 27.405455 493.322044 23.97128 546.655384 50.511092 585.825746L191.420492 943.09136C192.61245 946.130511 194.312867 948.780249 196.213332 951.235275 154.17807 950.388709 115.660334 936.505111 83.68586 913.216225L78.359557 910.050087C66.540004 904.44586 54.72045 900.170725 43.200974 896.572839 25.630015 891.036336 6.94212 901.04268 1.490792 918.913582-3.935533 936.792947 5.925207 955.730511 23.529504 961.267024 32.565042 964.111468 40.883743 967.201413 48.485602 970.714638 91.437753 1000.979185 143.717183 1019.12945 200.089275 1019.12945 239.423878 1019.12945 276.532937 1009.961204 309.732715 994.655384L315.56747 991.184479C348.767241 966.642677 389.102091 952.132624 433.096165 952.132624 462.261614 952.132624 489.709987 958.871254 515.032831 970.570719 558.026665 1000.928397 610.381114 1019.12945 666.85323 1019.12945 706.221181 1019.12945 743.296894 1009.961204 776.530012 994.655384L782.364764 991.184479C815.539536 966.642677 855.85771 952.132624 899.860122 952.132624 929.008905 952.132624 956.423932 958.854317 981.696767 970.519931 993.916419 979.078664 1006.602852 986.206701 1019.189253 992.352738 1035.801643 1000.42046 1055.739844 993.317812 1063.675113 976.445852 1071.618725 959.573902 1064.63368 939.358024 1048.02129 931.290296L1048.02129 931.290296 1048.02129 931.290296ZM328.863124 209.539547 351.593612 209.539547C376.717081 209.539547 397.048904 188.890042 397.071637 163.37402L397.071637 117.185399 669.911376 117.185399 669.911376 163.37402C669.911376 188.890042 690.243199 209.539547 715.366665 209.539547L738.119886 209.539547 738.119886 313.733825 574.430826 223.804275C562.767168 214.573478 548.318333 209.331727 533.482981 209.331727 518.658997 209.331727 504.204474 214.573478 492.54082 223.810047L328.863124 313.733825 328.863124 209.539547 328.863124 209.539547 328.863124 209.539547Z" p-id="19853"></path></svg>